<svg xmlns="http://www.w3.org/2000/svg" width="20.972" height="20.441" viewBox="0 0 20.972 20.441">
  <path id="Icon_awesome-arrow-right" data-name="Icon awesome-arrow-right" d="M8.917,4.016,9.956,2.977a1.119,1.119,0,0,1,1.587,0l9.1,9.095a1.119,1.119,0,0,1,0,1.587l-9.1,9.1a1.119,1.119,0,0,1-1.587,0L8.917,21.719a1.125,1.125,0,0,1,.019-1.606l5.64-5.374H1.123A1.121,1.121,0,0,1,0,13.617v-1.5A1.121,1.121,0,0,1,1.123,11H14.576L8.936,5.622A1.117,1.117,0,0,1,8.917,4.016Z" transform="translate(0 -2.647)" fill="#fff"/>
</svg>
