<svg xmlns="http://www.w3.org/2000/svg" width="16.105" height="12.884" viewBox="0 0 16.105 12.884">
  <path id="Icon_awesome-eye-slash" data-name="Icon awesome-eye-slash" d="M8.053,10.066a3.61,3.61,0,0,1-3.6-3.35l-2.64-2.04a8.387,8.387,0,0,0-.924,1.4.814.814,0,0,0,0,.735,8.071,8.071,0,0,0,7.16,4.464,7.817,7.817,0,0,0,1.96-.263L8.707,10a3.627,3.627,0,0,1-.654.066Zm7.9,1.462-2.782-2.15a8.336,8.336,0,0,0,2.045-2.569.814.814,0,0,0,0-.735A8.071,8.071,0,0,0,8.053,1.61a7.754,7.754,0,0,0-3.707.949L1.144.085A.4.4,0,0,0,.579.155L.085.791a.4.4,0,0,0,.071.565L14.961,12.8a.4.4,0,0,0,.565-.071l.494-.636a.4.4,0,0,0-.071-.565ZM11.327,7.954l-.989-.764A2.384,2.384,0,0,0,7.416,4.122a1.2,1.2,0,0,1,.234.71,1.174,1.174,0,0,1-.039.252L5.759,3.651a3.581,3.581,0,0,1,2.294-.833,3.622,3.622,0,0,1,3.624,3.624,3.538,3.538,0,0,1-.35,1.513Z" transform="translate(0 0)" opacity="0.31"/>
</svg>
